<?xml version="1.0" encoding="utf-8"?>
<!-- Svg Vector Icons : http://www.onlinewebfonts.com/icon -->
<!DOCTYPE svg PUBLIC "-//W3C//DTD SVG 1.1//EN" "http://www.w3.org/Graphics/SVG/1.1/DTD/svg11.dtd">
<svg version="1.1" xmlns="http://www.w3.org/2000/svg" xmlns:xlink="http://www.w3.org/1999/xlink" x="0px" y="0px" viewBox="0 0 1000 1000" enable-background="new 0 0 1000 1000" xml:space="preserve">
<metadata> Svg Vector Icons : http://www.onlinewebfonts.com/icon </metadata>
<g><path d="M605.9,119c86.6-58.7,137-138.6,187.8-97.9c25.2,20.2,23.3,67.2,48.2,186.8c7.9,37.5,25.3,50.4,44.8,81.6c3.9,6.3,7.1,11.9,9.6,16c30.5,50,43.6,111.5,47.1,166.1c16.1,250.1-319.8,449.7-441,518.4c-7.3-14.6-0.9-72.4-5.3-116.4c-260.4,1.5-433.6-191-440.9-383.3c-2.4-62.6,14.4-129.1,43.9-179.4c3.9-6.6,9.2-14.8,15-23.2c21-30.4,30.9-42.4,39-79.3C172.8,124,181.8,32,210.4,16.3c48.2-26.5,119.6,61.3,192,110.2c21.5,14.6,27.7,15.5,53.1,15.5c26.9,0,67.4,0,94.9,0C576.3,142,583.7,134,605.9,119L605.9,119z"/></g>
</svg>